<?xml version="1.0" standalone="no"?>
<!DOCTYPE svg PUBLIC "-//W3C//DTD SVG 20010904//EN"
 "http://www.w3.org/TR/2001/REC-SVG-20010904/DTD/svg10.dtd">
<svg version="1.0" xmlns="http://www.w3.org/2000/svg"
 width="512.000000pt" height="512.000000pt" viewBox="0 0 512.000000 512.000000"
 preserveAspectRatio="xMidYMid meet">
<metadata>
Created by potrace 1.14, written by Peter Selinger 2001-2017
</metadata>
<g transform="translate(0.000000,512.000000) scale(0.100000,-0.100000)"
fill="#000000" stroke="none">
<path d="M1790 4474 c-415 -162 -777 -302 -805 -313 -83 -31 -519 -201 -540
-210 -11 -5 -67 -27 -125 -49 -108 -41 -154 -74 -162 -114 -6 -32 8 -82 29
-101 10 -8 286 -120 613 -247 327 -128 843 -329 1145 -447 303 -118 565 -219
583 -223 41 -10 40 -10 292 88 113 44 410 159 660 257 463 180 551 214 720
280 52 21 158 62 235 91 77 30 149 58 160 63 11 5 87 36 169 68 164 64 191 85
189 148 -1 47 -25 82 -71 101 -20 8 -273 107 -562 220 -289 112 -534 208 -545
213 -11 5 -87 35 -170 66 -82 32 -163 63 -180 70 -16 7 -68 27 -115 45 -47 17
-94 36 -105 41 -69 30 -618 239 -637 243 -15 2 -297 -103 -778 -290z m1091
-59 c178 -69 333 -130 344 -135 11 -5 306 -120 655 -256 349 -135 642 -250
650 -254 13 -7 12 -10 -5 -16 -75 -29 -1830 -712 -1903 -741 l-64 -25 -121 47
c-67 27 -142 56 -167 65 -110 42 -547 211 -565 220 -11 5 -222 87 -470 183
-691 268 -669 259 -652 268 8 5 52 22 98 39 46 17 98 37 114 44 17 7 46 19 65
26 19 6 44 16 55 21 11 4 83 33 160 63 77 30 193 75 258 100 65 25 119 46 122
46 2 0 14 4 27 10 53 22 1064 418 1069 419 4 1 152 -55 330 -124z"/>
<path d="M995 2988 c-121 -50 -233 -96 -250 -103 -16 -7 -131 -54 -255 -104
-270 -109 -304 -125 -320 -156 -18 -34 -15 -84 8 -114 19 -27 76 -52 512 -221
738 -286 1399 -543 1425 -555 17 -7 120 -48 230 -90 195 -75 201 -77 245 -66
24 7 58 18 75 26 16 7 91 36 165 64 74 29 144 56 155 61 18 8 1007 393 1405
547 91 34 174 67 185 73 11 5 81 32 155 61 171 65 187 73 210 112 29 47 10
116 -38 141 -45 23 -985 398 -1010 402 -32 6 -85 -21 -104 -54 -26 -46 -10
-120 33 -142 11 -6 111 -47 222 -92 111 -44 216 -86 232 -93 17 -8 84 -35 150
-60 66 -26 121 -48 123 -50 1 -1 -64 -28 -145 -59 -81 -32 -168 -66 -193 -76
-39 -17 -621 -243 -930 -362 -58 -22 -118 -46 -135 -53 -16 -7 -155 -61 -308
-121 l-278 -108 -57 21 c-47 17 -733 285 -1072 418 -47 18 -220 85 -385 150
-165 64 -342 133 -393 152 l-93 37 33 14 c18 7 137 55 263 107 492 199 472
190 490 226 40 77 -10 160 -97 158 -18 0 -132 -41 -253 -91z"/>
<path d="M1110 1839 c-683 -275 -898 -365 -917 -382 -46 -41 -46 -112 0 -155
12 -12 52 -32 87 -46 80 -29 318 -122 1879 -730 206 -80 384 -146 397 -146 13
0 290 104 616 231 326 127 685 267 798 310 113 44 214 83 225 88 22 10 277
109 445 173 58 22 119 46 135 53 17 7 51 20 77 30 51 19 97 58 99 84 6 58 -9
98 -42 119 -10 7 -176 73 -367 148 -191 74 -360 141 -377 148 -16 8 -79 33
-139 56 -101 39 -113 41 -148 30 -43 -12 -78 -58 -78 -100 0 -41 34 -84 81
-104 24 -10 63 -27 86 -37 24 -11 47 -19 53 -19 6 0 18 -4 28 -10 9 -5 71 -30
137 -56 66 -25 134 -52 150 -59 17 -7 69 -28 117 -47 49 -18 88 -35 88 -38 0
-3 -148 -62 -328 -132 -525 -204 -1205 -468 -1232 -480 -14 -5 -115 -45 -224
-87 l-199 -77 -146 56 c-80 31 -247 96 -371 144 -124 48 -236 92 -250 98 -14
5 -106 41 -205 79 -99 39 -193 76 -210 83 -16 7 -204 80 -417 162 -213 82
-388 152 -388 155 0 3 71 34 158 69 86 35 171 69 187 76 17 7 82 34 145 59
236 95 258 106 275 132 33 49 15 126 -36 153 -41 23 -66 19 -189 -31z"/>
</g>
</svg>
